; NON-PLATED HOLES START AT T1
; THROUGH (PLATED) HOLES START AT T100
M48
INCH
T1C0.122047
T100C0.038000
T101C0.038779
T102C0.039370
%
T1
X002082Y001713
X034082Y001713
X034082Y033713
X002082Y033713
T100
X019082Y033713
X011082Y033713
X018082Y033713
X012082Y033713
X021082Y033713
X017082Y033713
X023082Y033713
X022082Y033713
X020082Y033713
X016082Y033713
X015082Y033713
X009082Y033713
X028082Y033713
X014082Y033713
X013082Y033713
X010082Y033713
X027082Y033713
X025082Y033713
X026082Y033713
X024082Y033713
T101
X006082Y005718
X031939Y019708
X006082Y009713
X031939Y010716
X006082Y006712
X022082Y004715
X006082Y007715
X031939Y002718
X006082Y008709
X006082Y013707
X006082Y014710
X015939Y011710
X031939Y012713
X031939Y018705
X022082Y010716
X022082Y005718
X015939Y006712
X006082Y002718
X031939Y006712
X022082Y016708
X006082Y019708
X022082Y008709
X006082Y016708
X015939Y010716
X022082Y007715
X006082Y017711
X022082Y009713
X015939Y015714
X022082Y012713
X022082Y017711
X022082Y019708
X031939Y015714
X006082Y018705
X015939Y004715
X015939Y012713
X031939Y003721
X022082Y018705
X006082Y001714
X015939Y002718
X015939Y009713
X031939Y004715
X022082Y001714
X031939Y014710
X015939Y005718
X022082Y013707
X031939Y005718
X006082Y010716
X015939Y007715
X022082Y011710
X015939Y008709
X031939Y001714
X015939Y016708
X015939Y019708
X015939Y013707
X015939Y003721
X006082Y012713
X031939Y008709
X015939Y017711
X022082Y003721
X031939Y007715
X015939Y001714
X006082Y015714
X031939Y009713
X015939Y018705
X022082Y006712
X006082Y011710
X031939Y017711
X022082Y014710
X022082Y002718
X022082Y015714
X006082Y004715
X015939Y014710
X031939Y011710
X031939Y016708
X031939Y013707
X006082Y003721
T102
X030066Y030723
X023066Y025723
X022066Y025723
X015082Y030713
X007082Y030713
X006082Y025713
X013082Y030713
X027066Y025723
X009082Y030713
X026066Y025723
X024066Y025723
X025066Y030723
X010082Y025713
X013082Y025713
X011082Y025713
X028066Y025723
X008082Y025713
X014082Y025713
X030066Y025723
X012082Y030713
X007082Y025713
X008082Y030713
X027066Y030723
X006082Y030713
X022066Y030723
X009082Y025713
X012082Y025713
X010082Y030713
X011082Y030713
X026066Y030723
X028066Y030723
X025066Y025723
X029066Y025723
X024066Y030723
X015082Y025713
X014082Y030713
X023066Y030723
X031066Y025723
X029066Y030723
X031066Y030723
T00
M30
