G04 MADE WITH FRITZING*
G04 WWW.FRITZING.ORG*
G04 DOUBLE SIDED*
G04 HOLES PLATED*
G04 CONTOUR ON CENTER OF CONTOUR VECTOR*
%ASAXBY*%
%FSLAX23Y23*%
%MOIN*%
%OFA0B0*%
%SFA1.0B1.0*%
%ADD10C,0.081824*%
%ADD11C,0.086000*%
%ADD12C,0.088000*%
%ADD13C,0.132047*%
%LNMASK0*%
G90*
G70*
G54D10*
X608Y1971D03*
X608Y1871D03*
X608Y1771D03*
X608Y1671D03*
X608Y1571D03*
X608Y1471D03*
X608Y1371D03*
X608Y1271D03*
X608Y1171D03*
X608Y1072D03*
X608Y971D03*
X608Y871D03*
X608Y772D03*
X608Y671D03*
X608Y572D03*
X608Y472D03*
X608Y372D03*
X608Y272D03*
X608Y171D03*
X1594Y171D03*
X1594Y272D03*
X1594Y372D03*
X1594Y472D03*
X1594Y572D03*
X1594Y671D03*
X1594Y772D03*
X1594Y871D03*
X1594Y971D03*
X1594Y1072D03*
X1594Y1171D03*
X1594Y1271D03*
X1594Y1371D03*
X1594Y1471D03*
X1594Y1571D03*
X1594Y1671D03*
X1594Y1771D03*
X1594Y1871D03*
X1594Y1971D03*
X2208Y1971D03*
X2208Y1871D03*
X2208Y1771D03*
X2208Y1671D03*
X2208Y1571D03*
X2208Y1471D03*
X2208Y1371D03*
X2208Y1271D03*
X2208Y1171D03*
X2208Y1072D03*
X2208Y971D03*
X2208Y871D03*
X2208Y772D03*
X2208Y671D03*
X2208Y572D03*
X2208Y472D03*
X2208Y372D03*
X2208Y272D03*
X2208Y171D03*
X3194Y171D03*
X3194Y272D03*
X3194Y372D03*
X3194Y472D03*
X3194Y572D03*
X3194Y671D03*
X3194Y772D03*
X3194Y871D03*
X3194Y971D03*
X3194Y1072D03*
X3194Y1171D03*
X3194Y1271D03*
X3194Y1371D03*
X3194Y1471D03*
X3194Y1571D03*
X3194Y1671D03*
X3194Y1771D03*
X3194Y1871D03*
X3194Y1971D03*
G54D11*
X2207Y3072D03*
X2307Y3072D03*
X2407Y3072D03*
X2507Y3072D03*
X2607Y3072D03*
X2707Y3072D03*
X2807Y3072D03*
X2907Y3072D03*
X3007Y3072D03*
X3107Y3072D03*
X3107Y2572D03*
X3007Y2572D03*
X2907Y2572D03*
X2807Y2572D03*
X2707Y2572D03*
X2607Y2572D03*
X2507Y2572D03*
X2407Y2572D03*
X2307Y2572D03*
X2207Y2572D03*
X608Y3071D03*
X708Y3071D03*
X808Y3071D03*
X908Y3071D03*
X1008Y3071D03*
X1108Y3071D03*
X1208Y3071D03*
X1308Y3071D03*
X1408Y3071D03*
X1508Y3071D03*
X1508Y2571D03*
X1408Y2571D03*
X1308Y2571D03*
X1208Y2571D03*
X1108Y2571D03*
X1008Y2571D03*
X908Y2571D03*
X808Y2571D03*
X708Y2571D03*
X608Y2571D03*
G54D12*
X908Y3371D03*
X1008Y3371D03*
X1108Y3371D03*
X1208Y3371D03*
X1308Y3371D03*
X1408Y3371D03*
X1508Y3371D03*
X1608Y3371D03*
X1708Y3371D03*
X1808Y3371D03*
X908Y3371D03*
X1008Y3371D03*
X1108Y3371D03*
X1208Y3371D03*
X1308Y3371D03*
X1408Y3371D03*
X1508Y3371D03*
X1608Y3371D03*
X1708Y3371D03*
X1808Y3371D03*
X1908Y3371D03*
X2008Y3371D03*
X2108Y3371D03*
X2208Y3371D03*
X2308Y3371D03*
X2408Y3371D03*
X2508Y3371D03*
X2608Y3371D03*
X2708Y3371D03*
X2808Y3371D03*
X1908Y3371D03*
X2008Y3371D03*
X2108Y3371D03*
X2208Y3371D03*
X2308Y3371D03*
X2408Y3371D03*
X2508Y3371D03*
X2608Y3371D03*
X2708Y3371D03*
X2808Y3371D03*
G54D13*
X3408Y3371D03*
X208Y3371D03*
X208Y171D03*
X3408Y171D03*
G04 End of Mask0*
M02*